<svg xmlns="http://www.w3.org/2000/svg" width="13.353" height="13.353" viewBox="0 0 13.353 13.353"><defs><style>.a,.b{fill:none;}.b{stroke:#fff;stroke-linecap:round;stroke-linejoin:round;}</style></defs><path class="a" d="M0,0H13.353V13.353H0Z"/><path class="b" d="M5.226,7.895v4.451a.556.556,0,0,1-.556.556H3.556A.556.556,0,0,1,3,12.346V8.451a.556.556,0,0,1,.556-.556H5.226A2.226,2.226,0,0,0,7.451,5.669V5.113a1.113,1.113,0,0,1,2.226,0V7.895h1.669a1.113,1.113,0,0,1,1.113,1.113L11.9,11.789c-.164.7-.618,1.155-1.113,1.113H6.895a1.669,1.669,0,0,1-1.669-1.669" transform="translate(-1.331 -1.774)"/></svg>