<svg xmlns="http://www.w3.org/2000/svg" width="20.556" height="20.556" viewBox="0 0 20.556 20.556"><defs><style>.a{fill:none;}.b{fill:#675ddd;}</style></defs><path class="a" d="M0,0H20.556V20.556H0Z"/><path class="b" d="M11.524,14.867l-3.6-1.961a3.426,3.426,0,1,1,0-4.681l3.6-1.961a3.426,3.426,0,1,1,.821,1.5l-3.6,1.961a3.433,3.433,0,0,1,0,1.674l3.6,1.961a3.426,3.426,0,1,1-.821,1.5Zm-6.1-2.589a1.713,1.713,0,1,0-1.713-1.713A1.713,1.713,0,0,0,5.426,12.278Zm9.422-5.139a1.713,1.713,0,1,0-1.713-1.713A1.713,1.713,0,0,0,14.848,7.139Zm0,10.278A1.713,1.713,0,1,0,13.135,15.7,1.713,1.713,0,0,0,14.848,17.417Z" transform="translate(-0.287 -0.287)"/></svg>